<mxfile host="app.diagrams.net" modified="2024-05-09T12:25:05.037Z" agent="Mozilla/5.0 (Macintosh; Intel Mac OS X 10_15_7) AppleWebKit/537.36 (KHTML, like Gecko) Chrome/124.0.0.0 Safari/537.36" etag="MQPu7wgvrOETWA-yCZvb" version="24.3.1" type="github">
  <diagram name="第 1 页" id="v2zlln7HYd-ED8GgGqis">
    <mxGraphModel dx="1908" dy="1062" grid="1" gridSize="10" guides="1" tooltips="1" connect="1" arrows="1" fold="1" page="1" pageScale="1" pageWidth="827" pageHeight="1169" math="0" shadow="0">
      <root>
        <mxCell id="0" />
        <mxCell id="1" parent="0" />
        <mxCell id="S6ZK8nGLi5dJVDm3krEd-1" value="" style="rounded=1;whiteSpace=wrap;html=1;fillStyle=dashed;sketch=1;curveFitting=1;jiggle=2;fillColor=#ffcd28;strokeColor=#d79b00;gradientColor=#ffa500;" vertex="1" parent="1">
          <mxGeometry x="607" y="920" width="690" height="390" as="geometry" />
        </mxCell>
        <mxCell id="S6ZK8nGLi5dJVDm3krEd-2" value="" style="rounded=1;whiteSpace=wrap;html=1;fillStyle=dashed;sketch=1;curveFitting=1;jiggle=2;fillColor=#b1ddf0;strokeColor=#10739e;" vertex="1" parent="1">
          <mxGeometry x="1337" y="920" width="890" height="390" as="geometry" />
        </mxCell>
        <mxCell id="S6ZK8nGLi5dJVDm3krEd-3" value="" style="edgeStyle=orthogonalEdgeStyle;rounded=0;sketch=1;hachureGap=4;jiggle=2;curveFitting=1;orthogonalLoop=1;jettySize=auto;html=1;fontFamily=Architects Daughter;fontSource=https%3A%2F%2Ffonts.googleapis.com%2Fcss%3Ffamily%3DArchitects%2BDaughter;exitX=1;exitY=0.5;exitDx=0;exitDy=0;entryX=0;entryY=0.5;entryDx=0;entryDy=0;" edge="1" parent="1" source="S6ZK8nGLi5dJVDm3krEd-18" target="S6ZK8nGLi5dJVDm3krEd-20">
          <mxGeometry relative="1" as="geometry">
            <mxPoint x="569" y="1060.090909090909" as="sourcePoint" />
            <mxPoint x="869" y="1070.090909090909" as="targetPoint" />
          </mxGeometry>
        </mxCell>
        <mxCell id="S6ZK8nGLi5dJVDm3krEd-4" value="" style="edgeStyle=orthogonalEdgeStyle;rounded=0;sketch=1;hachureGap=4;jiggle=2;curveFitting=1;orthogonalLoop=1;jettySize=auto;html=1;fontFamily=Architects Daughter;fontSource=https%3A%2F%2Ffonts.googleapis.com%2Fcss%3Ffamily%3DArchitects%2BDaughter;" edge="1" parent="1" source="S6ZK8nGLi5dJVDm3krEd-5" target="S6ZK8nGLi5dJVDm3krEd-6">
          <mxGeometry relative="1" as="geometry" />
        </mxCell>
        <mxCell id="S6ZK8nGLi5dJVDm3krEd-5" value="&lt;div&gt;&lt;span style=&quot;font-size: 18px;&quot;&gt;Antlogs&lt;/span&gt;&lt;/div&gt;&lt;div&gt;&lt;span style=&quot;font-size: 18px;&quot;&gt;创建索引&lt;/span&gt;&lt;/div&gt;" style="rounded=1;whiteSpace=wrap;html=1;sketch=1;hachureGap=4;jiggle=2;curveFitting=1;fontFamily=Architects Daughter;fontSource=https%3A%2F%2Ffonts.googleapis.com%2Fcss%3Ffamily%3DArchitects%2BDaughter;" vertex="1" parent="1">
          <mxGeometry x="1143" y="1080" width="130" height="90" as="geometry" />
        </mxCell>
        <mxCell id="S6ZK8nGLi5dJVDm3krEd-6" value="&lt;span style=&quot;font-size: 18px;&quot;&gt;创建Antlogs&lt;/span&gt;&lt;div&gt;&lt;span style=&quot;font-size: 18px;&quot;&gt;数据源&lt;/span&gt;&lt;/div&gt;" style="rounded=1;whiteSpace=wrap;html=1;sketch=1;hachureGap=4;jiggle=2;curveFitting=1;fontFamily=Architects Daughter;fontSource=https%3A%2F%2Ffonts.googleapis.com%2Fcss%3Ffamily%3DArchitects%2BDaughter;" vertex="1" parent="1">
          <mxGeometry x="1353" y="1080" width="130" height="90" as="geometry" />
        </mxCell>
        <mxCell id="S6ZK8nGLi5dJVDm3krEd-7" style="edgeStyle=orthogonalEdgeStyle;rounded=0;sketch=1;hachureGap=4;jiggle=2;curveFitting=1;orthogonalLoop=1;jettySize=auto;html=1;exitX=0.5;exitY=0;exitDx=0;exitDy=0;exitPerimeter=0;entryX=0.5;entryY=0;entryDx=0;entryDy=0;fontFamily=Comic Sans MS;fontSize=24;" edge="1" parent="1" source="S6ZK8nGLi5dJVDm3krEd-11" target="S6ZK8nGLi5dJVDm3krEd-5">
          <mxGeometry relative="1" as="geometry">
            <Array as="points">
              <mxPoint x="1651" y="1010" />
              <mxPoint x="1208" y="1010" />
            </Array>
          </mxGeometry>
        </mxCell>
        <mxCell id="S6ZK8nGLi5dJVDm3krEd-8" value="&lt;font face=&quot;Comic Sans MS&quot; style=&quot;font-size: 23px;&quot;&gt;否&lt;/font&gt;" style="edgeLabel;html=1;align=center;verticalAlign=middle;resizable=0;points=[];sketch=1;hachureGap=4;jiggle=2;curveFitting=1;fontFamily=Architects Daughter;fontSource=https%3A%2F%2Ffonts.googleapis.com%2Fcss%3Ffamily%3DArchitects%2BDaughter;" vertex="1" connectable="0" parent="S6ZK8nGLi5dJVDm3krEd-7">
          <mxGeometry x="-0.0286" y="-2" relative="1" as="geometry">
            <mxPoint as="offset" />
          </mxGeometry>
        </mxCell>
        <mxCell id="S6ZK8nGLi5dJVDm3krEd-9" style="edgeStyle=orthogonalEdgeStyle;rounded=0;sketch=1;hachureGap=4;jiggle=2;curveFitting=1;orthogonalLoop=1;jettySize=auto;html=1;exitX=1;exitY=0.5;exitDx=0;exitDy=0;exitPerimeter=0;entryX=0;entryY=0.5;entryDx=0;entryDy=0;fontFamily=Architects Daughter;fontSource=https%3A%2F%2Ffonts.googleapis.com%2Fcss%3Ffamily%3DArchitects%2BDaughter;" edge="1" parent="1" source="S6ZK8nGLi5dJVDm3krEd-11" target="S6ZK8nGLi5dJVDm3krEd-14">
          <mxGeometry relative="1" as="geometry" />
        </mxCell>
        <mxCell id="S6ZK8nGLi5dJVDm3krEd-10" value="&lt;font style=&quot;font-size: 19px;&quot; face=&quot;Comic Sans MS&quot;&gt;是&lt;/font&gt;" style="edgeLabel;html=1;align=center;verticalAlign=middle;resizable=0;points=[];sketch=1;hachureGap=4;jiggle=2;curveFitting=1;fontFamily=Architects Daughter;fontSource=https%3A%2F%2Ffonts.googleapis.com%2Fcss%3Ffamily%3DArchitects%2BDaughter;" vertex="1" connectable="0" parent="S6ZK8nGLi5dJVDm3krEd-9">
          <mxGeometry x="0.0495" y="-3" relative="1" as="geometry">
            <mxPoint x="-5" y="-3" as="offset" />
          </mxGeometry>
        </mxCell>
        <mxCell id="S6ZK8nGLi5dJVDm3krEd-11" value="&lt;font style=&quot;font-size: 17px;&quot; face=&quot;Comic Sans MS&quot;&gt;判断日志是否&lt;/font&gt;&lt;div style=&quot;font-size: 17px;&quot;&gt;&lt;font style=&quot;font-size: 17px;&quot; face=&quot;ALH4eGtust82kODed8lC&quot;&gt;创建索引&lt;/font&gt;&lt;/div&gt;" style="strokeWidth=2;html=1;shape=mxgraph.flowchart.decision;whiteSpace=wrap;sketch=1;hachureGap=4;jiggle=2;curveFitting=1;fontFamily=Architects Daughter;fontSource=https%3A%2F%2Ffonts.googleapis.com%2Fcss%3Ffamily%3DArchitects%2BDaughter;" vertex="1" parent="1">
          <mxGeometry x="1551.38" y="1075" width="200" height="100" as="geometry" />
        </mxCell>
        <mxCell id="S6ZK8nGLi5dJVDm3krEd-12" style="edgeStyle=orthogonalEdgeStyle;rounded=0;sketch=1;hachureGap=4;jiggle=2;curveFitting=1;orthogonalLoop=1;jettySize=auto;html=1;exitX=1;exitY=0.5;exitDx=0;exitDy=0;entryX=0;entryY=0.5;entryDx=0;entryDy=0;fontFamily=Architects Daughter;fontSource=https%3A%2F%2Ffonts.googleapis.com%2Fcss%3Ffamily%3DArchitects%2BDaughter;" edge="1" parent="1" source="S6ZK8nGLi5dJVDm3krEd-14" target="S6ZK8nGLi5dJVDm3krEd-15">
          <mxGeometry relative="1" as="geometry" />
        </mxCell>
        <mxCell id="S6ZK8nGLi5dJVDm3krEd-13" style="edgeStyle=orthogonalEdgeStyle;rounded=0;sketch=1;hachureGap=4;jiggle=2;curveFitting=1;orthogonalLoop=1;jettySize=auto;html=1;exitX=1;exitY=0.5;exitDx=0;exitDy=0;entryX=0;entryY=0.5;entryDx=0;entryDy=0;fontFamily=Architects Daughter;fontSource=https%3A%2F%2Ffonts.googleapis.com%2Fcss%3Ffamily%3DArchitects%2BDaughter;" edge="1" parent="1" source="S6ZK8nGLi5dJVDm3krEd-14" target="S6ZK8nGLi5dJVDm3krEd-17">
          <mxGeometry relative="1" as="geometry" />
        </mxCell>
        <mxCell id="S6ZK8nGLi5dJVDm3krEd-14" value="&lt;span style=&quot;font-size: 18px;&quot;&gt;创建Antlogs&lt;/span&gt;&lt;div&gt;&lt;span style=&quot;font-size: 18px;&quot;&gt;数据集&lt;/span&gt;&lt;/div&gt;" style="rounded=1;whiteSpace=wrap;html=1;sketch=1;hachureGap=4;jiggle=2;curveFitting=1;fontFamily=Architects Daughter;fontSource=https%3A%2F%2Ffonts.googleapis.com%2Fcss%3Ffamily%3DArchitects%2BDaughter;" vertex="1" parent="1">
          <mxGeometry x="1823" y="1080" width="130" height="90" as="geometry" />
        </mxCell>
        <mxCell id="S6ZK8nGLi5dJVDm3krEd-15" value="&lt;span style=&quot;font-size: 18px;&quot;&gt;&lt;font face=&quot;Comic Sans MS&quot;&gt;配置自助分析&lt;/font&gt;&lt;/span&gt;" style="rounded=1;whiteSpace=wrap;html=1;sketch=1;hachureGap=4;jiggle=2;curveFitting=1;fontFamily=Architects Daughter;fontSource=https%3A%2F%2Ffonts.googleapis.com%2Fcss%3Ffamily%3DArchitects%2BDaughter;" vertex="1" parent="1">
          <mxGeometry x="2053" y="1000" width="130" height="90" as="geometry" />
        </mxCell>
        <mxCell id="S6ZK8nGLi5dJVDm3krEd-16" style="edgeStyle=orthogonalEdgeStyle;rounded=0;sketch=1;hachureGap=4;jiggle=2;curveFitting=1;orthogonalLoop=1;jettySize=auto;html=1;exitX=1;exitY=0.5;exitDx=0;exitDy=0;fontFamily=Architects Daughter;fontSource=https%3A%2F%2Ffonts.googleapis.com%2Fcss%3Ffamily%3DArchitects%2BDaughter;entryX=0;entryY=0.5;entryDx=0;entryDy=0;entryPerimeter=0;" edge="1" parent="1" source="S6ZK8nGLi5dJVDm3krEd-6" target="S6ZK8nGLi5dJVDm3krEd-11">
          <mxGeometry relative="1" as="geometry">
            <mxPoint x="1553" y="1250" as="targetPoint" />
          </mxGeometry>
        </mxCell>
        <mxCell id="S6ZK8nGLi5dJVDm3krEd-17" value="&lt;span style=&quot;font-size: 18px;&quot;&gt;&lt;font face=&quot;Comic Sans MS&quot;&gt;配置实时报表&lt;/font&gt;&lt;/span&gt;" style="rounded=1;whiteSpace=wrap;html=1;sketch=1;hachureGap=4;jiggle=2;curveFitting=1;fontFamily=Architects Daughter;fontSource=https%3A%2F%2Ffonts.googleapis.com%2Fcss%3Ffamily%3DArchitects%2BDaughter;" vertex="1" parent="1">
          <mxGeometry x="2053" y="1178" width="130" height="90" as="geometry" />
        </mxCell>
        <mxCell id="S6ZK8nGLi5dJVDm3krEd-18" value="&lt;div&gt;&lt;span style=&quot;font-size: 18px;&quot;&gt;Flink ETL&lt;/span&gt;&lt;/div&gt;" style="rounded=1;whiteSpace=wrap;html=1;sketch=1;hachureGap=4;jiggle=2;curveFitting=1;fontFamily=Architects Daughter;fontSource=https%3A%2F%2Ffonts.googleapis.com%2Fcss%3Ffamily%3DArchitects%2BDaughter;" vertex="1" parent="1">
          <mxGeometry x="420" y="1020" width="130" height="90" as="geometry" />
        </mxCell>
        <mxCell id="S6ZK8nGLi5dJVDm3krEd-19" style="edgeStyle=orthogonalEdgeStyle;rounded=0;sketch=1;hachureGap=4;jiggle=2;curveFitting=1;orthogonalLoop=1;jettySize=auto;html=1;exitX=1;exitY=0.5;exitDx=0;exitDy=0;entryX=0;entryY=0.5;entryDx=0;entryDy=0;fontFamily=Architects Daughter;fontSource=https%3A%2F%2Ffonts.googleapis.com%2Fcss%3Ffamily%3DArchitects%2BDaughter;" edge="1" parent="1" source="S6ZK8nGLi5dJVDm3krEd-20" target="S6ZK8nGLi5dJVDm3krEd-5">
          <mxGeometry relative="1" as="geometry" />
        </mxCell>
        <mxCell id="S6ZK8nGLi5dJVDm3krEd-20" value="&lt;div&gt;&lt;span style=&quot;font-size: 18px;&quot;&gt;新建SLS&lt;/span&gt;&lt;/div&gt;&lt;div&gt;&lt;span style=&quot;font-size: 18px;&quot;&gt;DWD管道&lt;/span&gt;&lt;/div&gt;" style="rounded=1;whiteSpace=wrap;html=1;sketch=1;hachureGap=4;jiggle=2;curveFitting=1;fontFamily=Architects Daughter;fontSource=https%3A%2F%2Ffonts.googleapis.com%2Fcss%3Ffamily%3DArchitects%2BDaughter;" vertex="1" parent="1">
          <mxGeometry x="867" y="1020" width="130" height="90" as="geometry" />
        </mxCell>
        <mxCell id="S6ZK8nGLi5dJVDm3krEd-21" style="edgeStyle=orthogonalEdgeStyle;rounded=0;sketch=1;hachureGap=4;jiggle=2;curveFitting=1;orthogonalLoop=1;jettySize=auto;html=1;exitX=1;exitY=0.5;exitDx=0;exitDy=0;entryX=0;entryY=0.5;entryDx=0;entryDy=0;fontFamily=Architects Daughter;fontSource=https%3A%2F%2Ffonts.googleapis.com%2Fcss%3Ffamily%3DArchitects%2BDaughter;" edge="1" parent="1" source="S6ZK8nGLi5dJVDm3krEd-22" target="S6ZK8nGLi5dJVDm3krEd-24">
          <mxGeometry relative="1" as="geometry" />
        </mxCell>
        <mxCell id="S6ZK8nGLi5dJVDm3krEd-22" value="&lt;div&gt;&lt;span style=&quot;font-size: 18px;&quot;&gt;工程日志采集&lt;/span&gt;&lt;/div&gt;" style="rounded=1;whiteSpace=wrap;html=1;sketch=1;hachureGap=4;jiggle=2;curveFitting=1;fontFamily=Architects Daughter;fontSource=https%3A%2F%2Ffonts.googleapis.com%2Fcss%3Ffamily%3DArchitects%2BDaughter;" vertex="1" parent="1">
          <mxGeometry x="420" y="1160" width="130" height="90" as="geometry" />
        </mxCell>
        <mxCell id="S6ZK8nGLi5dJVDm3krEd-23" style="edgeStyle=orthogonalEdgeStyle;rounded=0;sketch=1;hachureGap=4;jiggle=2;curveFitting=1;orthogonalLoop=1;jettySize=auto;html=1;exitX=1;exitY=0.5;exitDx=0;exitDy=0;entryX=0;entryY=0.5;entryDx=0;entryDy=0;fontFamily=Architects Daughter;fontSource=https%3A%2F%2Ffonts.googleapis.com%2Fcss%3Ffamily%3DArchitects%2BDaughter;" edge="1" parent="1" source="S6ZK8nGLi5dJVDm3krEd-24" target="S6ZK8nGLi5dJVDm3krEd-26">
          <mxGeometry relative="1" as="geometry" />
        </mxCell>
        <mxCell id="S6ZK8nGLi5dJVDm3krEd-24" value="&lt;div&gt;&lt;span style=&quot;font-size: 18px;&quot;&gt;日志字段切割&lt;/span&gt;&lt;/div&gt;" style="rounded=1;whiteSpace=wrap;html=1;sketch=1;hachureGap=4;jiggle=2;curveFitting=1;fontFamily=Architects Daughter;fontSource=https%3A%2F%2Ffonts.googleapis.com%2Fcss%3Ffamily%3DArchitects%2BDaughter;" vertex="1" parent="1">
          <mxGeometry x="657" y="1160" width="130" height="90" as="geometry" />
        </mxCell>
        <mxCell id="S6ZK8nGLi5dJVDm3krEd-25" style="edgeStyle=orthogonalEdgeStyle;rounded=0;sketch=1;hachureGap=4;jiggle=2;curveFitting=1;orthogonalLoop=1;jettySize=auto;html=1;exitX=1;exitY=0.5;exitDx=0;exitDy=0;fontFamily=Architects Daughter;fontSource=https%3A%2F%2Ffonts.googleapis.com%2Fcss%3Ffamily%3DArchitects%2BDaughter;" edge="1" parent="1" source="S6ZK8nGLi5dJVDm3krEd-26" target="S6ZK8nGLi5dJVDm3krEd-5">
          <mxGeometry relative="1" as="geometry" />
        </mxCell>
        <mxCell id="S6ZK8nGLi5dJVDm3krEd-26" value="&lt;div&gt;&lt;span style=&quot;font-size: 18px;&quot;&gt;新建SLS&lt;/span&gt;&lt;/div&gt;&lt;div&gt;&lt;span style=&quot;font-size: 18px;&quot;&gt;ODS View&lt;/span&gt;&lt;/div&gt;" style="rounded=1;whiteSpace=wrap;html=1;sketch=1;hachureGap=4;jiggle=2;curveFitting=1;fontFamily=Architects Daughter;fontSource=https%3A%2F%2Ffonts.googleapis.com%2Fcss%3Ffamily%3DArchitects%2BDaughter;" vertex="1" parent="1">
          <mxGeometry x="867" y="1160" width="130" height="90" as="geometry" />
        </mxCell>
        <mxCell id="S6ZK8nGLi5dJVDm3krEd-27" value="AntLogs平台" style="text;html=1;align=center;verticalAlign=middle;whiteSpace=wrap;rounded=0;fontFamily=Comic Sans MS;fontSize=20;fontStyle=1" vertex="1" parent="1">
          <mxGeometry x="898.5" y="930" width="130" height="30" as="geometry" />
        </mxCell>
        <mxCell id="S6ZK8nGLi5dJVDm3krEd-28" value="DeepInsight平台" style="text;html=1;align=center;verticalAlign=middle;whiteSpace=wrap;rounded=0;fontFamily=Comic Sans MS;fontSize=21;fontStyle=1" vertex="1" parent="1">
          <mxGeometry x="1694" y="940" width="176" height="30" as="geometry" />
        </mxCell>
      </root>
    </mxGraphModel>
  </diagram>
</mxfile>
